<?xml version="1.0" encoding="UTF-8" standalone="no" ?>
<!DOCTYPE svg PUBLIC "-//W3C//DTD SVG 1.1//EN" "http://www.w3.org/Graphics/SVG/1.1/DTD/svg11.dtd">
<svg xmlns="http://www.w3.org/2000/svg" xmlns:xlink="http://www.w3.org/1999/xlink" version="1.1" width="445" height="445" viewBox="0 0 445 445" xml:space="preserve">
<desc>Created with Fabric.js 1.7.22</desc>
<defs>
</defs>
<g id="icon" style="stroke: none; stroke-width: 1; stroke-dasharray: none; stroke-linecap: butt; stroke-linejoin: miter; stroke-miterlimit: 10; fill: none; fill-rule: nonzero; opacity: 1;" transform="translate(-2.4722222222222285 -2.4722222222222285) scale(4.94 4.94)" >
	<path d="M 45 40.944 c -0.446 0 -0.869 -0.198 -1.154 -0.541 l -5.631 -6.775 c -0.372 -0.448 -0.451 -1.069 -0.204 -1.596 c 0.247 -0.526 0.776 -0.863 1.358 -0.863 h 11.263 c 0.582 0 1.111 0.336 1.358 0.863 c 0.247 0.527 0.167 1.149 -0.205 1.596 l -5.632 6.775 C 45.869 40.746 45.446 40.944 45 40.944 z M 42.566 34.169 L 45 37.098 l 2.435 -2.929 H 42.566 z" style="stroke: none; stroke-width: 1; stroke-dasharray: none; stroke-linecap: butt; stroke-linejoin: miter; stroke-miterlimit: 10; fill: rgb(0,0,0); fill-rule: nonzero; opacity: 1;" transform=" matrix(1 0 0 1 0 0) " stroke-linecap="round" />
	<path d="M 54.531 72.498 H 35.468 c -0.829 0 -1.5 -0.672 -1.5 -1.5 v -9.639 c 0 -0.351 0.123 -0.689 0.347 -0.959 l 9.532 -11.468 c 0.285 -0.343 0.708 -0.541 1.153 -0.541 l 0 0 c 0.446 0 0.869 0.198 1.153 0.541 L 55.685 60.4 c 0.224 0.27 0.347 0.608 0.347 0.959 v 9.639 C 56.031 71.826 55.359 72.498 54.531 72.498 z M 36.968 69.498 h 16.063 v -7.597 L 45 52.238 l -8.032 9.663 V 69.498 z" style="stroke: none; stroke-width: 1; stroke-dasharray: none; stroke-linecap: butt; stroke-linejoin: miter; stroke-miterlimit: 10; fill: rgb(0,0,0); fill-rule: nonzero; opacity: 1;" transform=" matrix(1 0 0 1 0 0) " stroke-linecap="round" />
	<path d="M 61.983 34.643 c 1.979 -2.382 3.068 -5.399 3.068 -8.494 V 13.147 h 3.189 c 0.828 0 1.5 -0.671 1.5 -1.5 V 1.5 c 0 -0.829 -0.672 -1.5 -1.5 -1.5 H 21.759 c -0.829 0 -1.5 0.671 -1.5 1.5 v 10.147 c 0 0.829 0.671 1.5 1.5 1.5 h 3.189 v 13.001 c 0 3.096 1.09 6.113 3.069 8.495 l 6.641 7.989 c 1.141 1.372 1.14 3.364 0 4.736 l -6.64 7.989 c -1.979 2.381 -3.07 5.397 -3.07 8.494 v 13.001 h -3.189 c -0.829 0 -1.5 0.672 -1.5 1.5 V 88.5 c 0 0.828 0.671 1.5 1.5 1.5 h 46.482 c 0.828 0 1.5 -0.672 1.5 -1.5 V 78.353 c 0 -0.828 -0.672 -1.5 -1.5 -1.5 h -3.189 V 63.852 c 0 -3.096 -1.09 -6.112 -3.069 -8.494 l -6.641 -7.989 c -1.14 -1.372 -1.14 -3.364 0 -4.736 L 61.983 34.643 z M 23.259 3 h 43.482 v 7.147 h -3.189 H 26.448 h -3.189 V 3 z M 66.741 87 H 23.259 v -7.147 h 3.189 h 37.104 h 3.189 V 87 z M 53.035 49.286 l 6.641 7.989 c 1.532 1.844 2.376 4.179 2.376 6.576 v 13.001 H 27.948 V 63.852 c 0 -2.397 0.844 -4.733 2.377 -6.576 l 6.64 -7.989 c 2.064 -2.483 2.064 -6.089 0 -8.572 l -6.641 -7.989 c -1.532 -1.844 -2.376 -4.18 -2.376 -6.577 V 13.147 h 34.104 v 13.001 c 0 2.396 -0.844 4.732 -2.376 6.577 l -6.641 7.989 C 50.972 43.198 50.972 46.803 53.035 49.286 z" style="stroke: none; stroke-width: 1; stroke-dasharray: none; stroke-linecap: butt; stroke-linejoin: miter; stroke-miterlimit: 10; fill: rgb(0,0,0); fill-rule: nonzero; opacity: 1;" transform=" matrix(1 0 0 1 0 0) " stroke-linecap="round" />
</g>
</svg>