<?xml version="1.0" encoding="utf-8"?><svg version="1.1" id="Layer_1" xmlns="http://www.w3.org/2000/svg" xmlns:xlink="http://www.w3.org/1999/xlink" x="0px" y="0px" viewBox="0 0 112.09 122.88" style="enable-background:new 0 0 112.09 122.88" xml:space="preserve"><g><path d="M93.27,71.12c0.16,0.39,0.16,0.84-0.01,1.26c-2.09,4.89-4.53,7.24-7.28,8.03c-2.33,0.67-4.85,0.2-7.55-0.81 c0.5,1.98,0.8,3.98,0.88,5.98c0.09,2.17-0.08,4.33-0.54,6.5c2.7,1.81,6.16,3.34,10.25,4.62c4.43,1.39,9.57,2.48,15.31,3.32 c0.13-1.82,0.12-3.69-0.03-5.6c-0.18-2.23-0.54-4.52-1.1-6.87l-0.08-0.35l0.05-0.01l0-0.06c0-0.14,0.03-0.29,0.07-0.43l0,0 l1.85-6.11c-1.51-1.3-2.5-2.7-3.03-4.19c-0.55-1.56-0.58-3.22-0.15-4.95l0.07-0.29h0.01c0.4-1.46,1.14-2.97,2.18-4.51 c1.04-1.54,2.37-3.11,3.96-4.72l-4.46-4.46l0,0l-0.02-0.02c-0.15-0.15-0.27-0.33-0.36-0.53v0c-0.08-0.2-0.13-0.41-0.13-0.63v-6.52 v-0.38h0.05c0.03-0.11,0.06-0.21,0.11-0.32v0c1.55-3.27,2.41-6.44,2.63-9.49c0.23-3.13-0.22-6.14-1.28-9.02 c-1.11-3-2.89-5.89-5.29-8.64c-2.46-2.83-5.56-5.51-9.25-8.04c-1.07-0.74-2.24-1.43-3.49-2.09c-1.26-0.66-2.6-1.29-4.02-1.9 c-1.44-0.62-2.97-1.22-4.58-1.82c-1.58-0.59-3.3-1.19-5.1-1.82C65.8,3.79,58.09,2.91,50.47,3.42c-7.9,0.52-15.71,2.53-22.63,5.81 c-2.71,1.28-5.29,2.76-7.68,4.42c-2.34,1.62-4.5,3.42-6.44,5.37c-1.98,1.99-3.73,4.16-5.21,6.47c-1.42,2.23-2.59,4.62-3.46,7.13 c-1.46,4.25-2.07,8.88-1.62,13.85c0.42,4.66,1.78,9.61,4.25,14.81c0.85,1.79,1.92,3.57,3.18,5.33c1.26,1.76,2.72,3.51,4.33,5.24 c1.63,1.75,3.42,3.49,5.36,5.23c1.93,1.74,3.99,3.47,6.15,5.2c5.73,2.64,9.33,3.4,11.68,3.06c2.26-0.33,3.38-1.74,4.19-3.51 c0.18-0.4,0.36-0.82,0.53-1.25c0.19-0.49,0.34-0.89,0.49-1.3v0l0,0l0,0c1.3-3.47,2.67-7.12,6.9-8.87c4.46-1.85,8.65-1.8,12.58-0.86 c3.89,0.93,7.51,2.73,10.86,4.4l0,0l0.07,0.04h0c1.49,0.74,2.93,1.46,4.22,2.01c2.46,1.05,4.7,1.65,6.68,1.08 c1.98-0.57,3.76-2.32,5.32-5.97c0.18-0.42,0.51-0.72,0.9-0.88c0.39-0.16,0.84-0.16,1.25,0.01C92.81,70.4,93.11,70.73,93.27,71.12 L93.27,71.12z M97.57,57.49c0.7-1.86,0.94-3.41,0.79-4.69c-0.53-4.39-3.92-2.89-6.6-1.17c-1.68,1.07-3.4,2.61-5.17,4.57 c-1.29,1.69-2,3.39-2.3,5.08c-1.05,5.8,2.42,9.44,7.18,4.4c3.09-3.27,1.78-2.44,3.41-5.64C95.49,58.85,96.41,58.03,97.57,57.49 L97.57,57.49z M38.78,65.04c-0.73-0.75-0.71-1.94,0.04-2.67c0.75-0.73,1.94-0.71,2.67,0.04c0.56,0.58,1.24,0.91,2.05,0.99 c0.96,0.1,2.13-0.13,3.51-0.68c0.05-0.02,0.1-0.04,0.15-0.05c0.84-0.34,1.56-0.68,2.21-0.98c1.74-0.82,3-1.42,6.11-1.83v0 c1.14-0.15,2.29-0.24,3.45-0.26c1.16-0.02,2.31,0.03,3.45,0.15c3.23,0.34,5.68,1.18,7.67,1.87c2.72,0.93,4.18,1.44,5.52-1.92 c0.92-2.3,1.23-3.6,1.45-4.49c0.59-2.43,0.64-2.64,5.16-6.81c1.33-1.23,2.16-2.41,2.31-3.54c0.13-1-0.31-2.11-1.47-3.35l-5.29-3.91 c-0.84-0.62-1.01-1.8-0.39-2.64c0.62-0.84,1.8-1.01,2.64-0.39l5.38,3.97c0.1,0.07,0.19,0.15,0.28,0.23 c2.12,2.19,2.89,4.38,2.61,6.57c-0.28,2.09-1.53,4.02-3.49,5.84c-3.68,3.4-3.71,3.51-4.05,4.91c-0.24,0.99-0.59,2.43-1.61,4.99 c-2.68,6.72-5.34,5.8-10.26,4.11c-1.82-0.63-4.07-1.4-6.83-1.69C61,63.4,60,63.36,59,63.37c-0.99,0.01-1.98,0.09-3,0.23l0,0 l-0.01,0c-2.5,0.33-3.55,0.83-4.99,1.51c-0.66,0.31-1.39,0.65-2.42,1.07c-0.05,0.02-0.1,0.05-0.15,0.07 c-1.94,0.77-3.69,1.07-5.27,0.91C41.43,66.99,39.97,66.28,38.78,65.04L38.78,65.04z M73.29,77.28l-0.72-0.36l-0.09-0.05l0,0l0,0 l-0.68-0.34c-4.73,6.26-10.81,2.1-13.55-4.31l0.05-0.01c-1.25-0.03-2.52,0.07-3.81,0.35L59,96.22l0.06,0.33l-0.04,0.01 c0,0.06-0.01,0.13-0.01,0.19c-0.34,2.54-0.35,4.73-0.01,6.56c0.33,1.78,0.99,3.21,1.98,4.29c0.99,1.07,2.35,1.82,4.09,2.25 c1.76,0.43,3.89,0.53,6.42,0.29v0c0.14-0.02,0.28-0.02,0.43-0.01c0.14,0.02,0.28,0.05,0.42,0.1l23.72,9.27 c1.4,0.15,2.53,0.16,3.4,0.02c0.81-0.13,1.37-0.39,1.69-0.77c0.29-0.34,0.4-0.87,0.34-1.56c-0.07-0.75-0.33-1.69-0.79-2.8h0 c-0.1-0.22-0.15-0.46-0.15-0.71c0-0.24,0.06-0.49,0.18-0.72v0c0.97-1.91,1.75-3.86,2.34-5.86c0.32-1.09,0.59-2.2,0.79-3.33 c-5.96-0.88-11.32-2.01-15.95-3.46c-4.97-1.56-9.13-3.49-12.32-5.87c-0.17-0.12-0.32-0.27-0.45-0.43l-0.05,0.09 C72.35,90.91,71.4,83.13,73.29,77.28L73.29,77.28z M55.73,96.58l-4.38-22.96c-2.61,1.31-3.66,4.12-4.67,6.8l0,0 c-0.19,0.51-0.38,1.02-0.54,1.42c-0.18,0.46-0.37,0.91-0.57,1.35c-1.21,2.61-2.8,4.73-5.92,5.38c-3.04,0.63-7.51-0.18-14.47-3.4 l0,0c-0.09-0.04-0.16-0.08-0.23-0.13c-0.07-0.05-0.14-0.1-0.21-0.17c-2.27-1.82-4.41-3.61-6.39-5.39c-2-1.8-3.86-3.6-5.55-5.41 c-1.72-1.85-3.28-3.72-4.63-5.61c-1.36-1.9-2.51-3.83-3.44-5.79c-2.65-5.6-4.11-10.95-4.56-16.01c-0.48-5.41,0.19-10.47,1.79-15.12 c0.95-2.75,2.22-5.35,3.78-7.8c1.61-2.53,3.51-4.88,5.67-7.05c2.08-2.09,4.39-4.01,6.89-5.75c2.54-1.77,5.28-3.34,8.16-4.7 c7.29-3.45,15.52-5.57,23.85-6.11c8.04-0.53,16.18,0.4,23.7,2.99c1.77,0.61,3.48,1.22,5.17,1.84c1.66,0.62,3.24,1.24,4.74,1.89 c1.52,0.65,2.95,1.32,4.3,2.03c1.35,0.71,2.61,1.46,3.78,2.26c3.96,2.72,7.31,5.63,9.97,8.71c2.62,3.03,4.57,6.22,5.8,9.56 c1.21,3.27,1.72,6.67,1.5,10.19c-0.22,3.4-1.14,6.91-2.8,10.51v5.49l5.17,5.17l0,0v0c0.32,0.32,0.48,0.74,0.48,1.16 c0,0.42-0.16,0.84-0.48,1.16v0l0,0l-0.01,0.01l-0.08,0.08v0c-1.75,1.66-3.2,3.25-4.29,4.77c-1.05,1.45-1.77,2.83-2.11,4.12 l-0.03,0.14c-0.29,1.18-0.23,2.3,0.22,3.36c0.46,1.08,1.32,2.11,2.64,3.08c0.3,0.22,0.5,0.52,0.6,0.85c0.1,0.34,0.09,0.7-0.03,1.04 l0,0l-2.02,6.65c0.56,2.42,0.92,4.79,1.09,7.12c0.17,2.35,0.15,4.66-0.07,6.92c-0.22,2.22-0.63,4.39-1.23,6.5 c-0.58,2.06-1.35,4.07-2.3,6.03c0.55,1.47,0.81,2.79,0.79,3.94c-0.03,1.23-0.39,2.28-1.1,3.12c-0.73,0.86-1.78,1.46-3.16,1.77 c-1.35,0.3-3.02,0.34-5.02,0.11c-0.08-0.01-0.16-0.02-0.23-0.04c-0.08-0.02-0.16-0.05-0.23-0.08v0l-23.52-9.19 c-2.94,0.25-5.47,0.09-7.6-0.5c-2.19-0.6-3.97-1.64-5.32-3.1c-1.35-1.46-2.25-3.3-2.72-5.53C55.39,102.09,55.35,99.52,55.73,96.58 L55.73,96.58z M46.68,80.43L46.68,80.43L46.68,80.43L46.68,80.43z"/></g></svg>