<?xml version="1.0" encoding="UTF-8" standalone="no" ?>
<!DOCTYPE svg PUBLIC "-//W3C//DTD SVG 1.1//EN" "http://www.w3.org/Graphics/SVG/1.1/DTD/svg11.dtd">
<svg xmlns="http://www.w3.org/2000/svg" xmlns:xlink="http://www.w3.org/1999/xlink" version="1.1" width="445" height="445" viewBox="0 0 445 445" xml:space="preserve">
<desc>Created with Fabric.js 1.7.22</desc>
<defs>
</defs>
<g id="icon" style="stroke: none; stroke-width: 1; stroke-dasharray: none; stroke-linecap: butt; stroke-linejoin: miter; stroke-miterlimit: 10; fill: none; fill-rule: nonzero; opacity: 1;" transform="translate(-2.4722222222222285 -2.4722222222222285) scale(4.94 4.94)" >
	<path d="M 51.666 19.635 l 3.05 -16.469 c 0.084 -0.452 -0.151 -0.902 -0.569 -1.093 c -3.024 -1.373 -6.068 -2.061 -9.112 -2.066 C 45.022 0.007 45.012 0 45 0 s -0.022 0.007 -0.034 0.007 c -3.044 0.005 -6.088 0.693 -9.111 2.066 c -0.418 0.19 -0.653 0.641 -0.57 1.093 l 3.049 16.468 c -11.348 2.993 -19.496 13.457 -19.496 25.28 V 73.82 c 0 0.481 0.343 0.895 0.816 0.983 c 6.589 1.23 12.226 6.665 15.078 14.537 c 0.144 0.396 0.52 0.659 0.94 0.659 h 3.536 c 0.516 0 0.947 -0.392 0.996 -0.905 c 0.69 -7.27 0.264 -19.295 -1.646 -26.836 c -0.06 -0.235 -0.203 -0.441 -0.402 -0.579 c -3.869 -2.662 -6.702 -6.934 -8.628 -13.022 l 11.842 4.238 l 0.731 5.45 c 0.067 0.497 0.49 0.867 0.991 0.867 h 3.814 c 0.501 0 0.925 -0.37 0.991 -0.867 l 0.731 -5.45 l 11.842 -4.238 c -1.927 6.089 -4.76 10.36 -8.628 13.022 c -0.199 0.138 -0.343 0.344 -0.402 0.579 c -1.909 7.538 -2.336 19.564 -1.646 26.836 C 49.844 89.607 50.275 90 50.791 90 h 3.537 c 0.421 0 0.797 -0.264 0.94 -0.659 c 2.852 -7.872 8.488 -13.307 15.077 -14.537 c 0.474 -0.089 0.816 -0.502 0.816 -0.983 V 44.914 C 71.162 33.092 63.014 22.628 51.666 19.635 z M 44 2.065 v 16.815 c 0 0.552 0.448 1 1 1 s 1 -0.448 1 -1 V 2.065 c 2.206 0.119 4.411 0.61 6.604 1.519 l -5.353 28.899 h -4.504 L 37.396 3.584 C 39.59 2.674 41.794 2.184 44 2.065 z M 69.162 73.01 c -6.75 1.594 -12.479 7.116 -15.527 14.99 h -1.927 c -0.55 -7.04 -0.122 -17.854 1.584 -24.893 c 4.491 -3.224 7.652 -8.395 9.656 -15.792 c 0.098 -0.359 -0.013 -0.743 -0.286 -0.996 c -0.274 -0.254 -0.669 -0.333 -1.016 -0.207 l -14.264 5.105 c -0.353 0.126 -0.604 0.438 -0.654 0.809 l -0.696 5.187 h -2.064 l -0.696 -5.187 c -0.05 -0.371 -0.302 -0.683 -0.654 -0.809 l -14.264 -5.105 c -0.349 -0.124 -0.741 -0.046 -1.016 0.207 c -0.273 0.253 -0.384 0.637 -0.287 0.996 c 2.003 7.396 5.164 12.567 9.657 15.792 c 1.706 7.04 2.133 17.854 1.583 24.893 h -1.925 c -3.049 -7.874 -8.777 -13.397 -15.528 -14.99 V 44.914 c 0 -10.869 7.456 -20.494 17.861 -23.308 l 2.233 12.06 c 0.088 0.474 0.501 0.818 0.983 0.818 h 6.168 c 0.482 0 0.896 -0.344 0.983 -0.818 l 2.233 -12.06 c 10.404 2.813 17.861 12.439 17.861 23.308 V 73.01 z" style="stroke: none; stroke-width: 1; stroke-dasharray: none; stroke-linecap: butt; stroke-linejoin: miter; stroke-miterlimit: 10; fill: rgb(0,0,0); fill-rule: nonzero; opacity: 1;" transform=" matrix(1 0 0 1 0 0) " stroke-linecap="round" />
</g>
</svg>