<?xml version="1.0" encoding="UTF-8" standalone="no" ?>
<!DOCTYPE svg PUBLIC "-//W3C//DTD SVG 1.1//EN" "http://www.w3.org/Graphics/SVG/1.1/DTD/svg11.dtd">
<svg xmlns="http://www.w3.org/2000/svg" xmlns:xlink="http://www.w3.org/1999/xlink" version="1.1" width="445" height="445" viewBox="0 0 445 445" xml:space="preserve">
<desc>Created with Fabric.js 1.7.22</desc>
<defs>
</defs>
<g id="icon" style="stroke: none; stroke-width: 1; stroke-dasharray: none; stroke-linecap: butt; stroke-linejoin: miter; stroke-miterlimit: 10; fill: none; fill-rule: nonzero; opacity: 1;" transform="translate(-2.4722222222222285 -2.4722222222222285) scale(4.94 4.94)" >
	<path d="M 52.37 5.572 l 0.568 -4.445 c 0.036 -0.285 -0.052 -0.572 -0.241 -0.788 C 52.507 0.124 52.233 0 51.946 0 H 38.054 c -0.287 0 -0.561 0.124 -0.75 0.339 c -0.19 0.215 -0.278 0.502 -0.241 0.788 l 0.568 4.445 C 21.649 9.008 10.145 23.181 10.145 39.638 v 33.301 c 0 0.481 0.343 0.895 0.816 0.983 c 7.66 1.43 14.492 7.09 18.744 15.528 c 0.17 0.337 0.516 0.55 0.893 0.55 h 6.915 c 0.534 0 0.974 -0.419 0.999 -0.952 c 0.415 -8.716 -0.431 -17.306 -2.514 -25.532 c -0.06 -0.235 -0.203 -0.441 -0.402 -0.578 c -5.6 -3.855 -9.602 -10.168 -12.217 -19.28 c 5.196 -1.388 10.318 -0.843 15.617 1.656 l 5.029 22.664 c 0.102 0.457 0.507 0.783 0.976 0.783 s 0.875 -0.326 0.976 -0.783 l 5.029 -22.664 c 5.298 -2.5 10.423 -3.043 15.616 -1.656 c -2.615 9.112 -6.617 15.425 -12.218 19.279 c -0.199 0.138 -0.343 0.344 -0.402 0.579 c -2.082 8.225 -2.928 16.815 -2.514 25.532 C 51.513 89.581 51.952 90 52.486 90 h 6.916 c 0.378 0 0.723 -0.213 0.893 -0.55 c 4.253 -8.438 11.084 -14.099 18.744 -15.528 c 0.474 -0.089 0.816 -0.502 0.816 -0.983 V 39.638 C 79.855 23.181 68.351 9.008 52.37 5.572 z M 50.811 2 l -4.237 33.135 h -3.146 L 39.19 2 H 50.811 z M 77.855 72.123 C 70.08 73.866 63.193 79.597 58.792 88 h -5.347 c -0.297 -8.065 0.511 -16.01 2.404 -23.634 c 6.033 -4.285 10.276 -11.202 12.966 -21.133 c 0.141 -0.519 -0.154 -1.056 -0.668 -1.216 c -6.169 -1.92 -12.204 -1.36 -18.454 1.708 c -0.272 0.134 -0.47 0.384 -0.536 0.681 L 45 63.144 l -4.158 -18.738 c -0.065 -0.296 -0.263 -0.547 -0.536 -0.681 c -6.251 -3.069 -12.287 -3.626 -18.454 -1.708 c -0.514 0.16 -0.809 0.697 -0.668 1.216 c 2.69 9.931 6.933 16.848 12.966 21.133 c 1.894 7.626 2.702 15.57 2.405 23.634 h -5.346 c -4.401 -8.403 -11.289 -14.134 -19.064 -15.877 V 39.638 c 0 -15.456 10.763 -28.775 25.74 -32.076 l 3.67 28.7 c 0.063 0.499 0.488 0.873 0.992 0.873 h 4.907 c 0.503 0 0.928 -0.374 0.992 -0.873 l 3.67 -28.7 c 14.976 3.301 25.74 16.62 25.74 32.076 V 72.123 z" style="stroke: none; stroke-width: 1; stroke-dasharray: none; stroke-linecap: butt; stroke-linejoin: miter; stroke-miterlimit: 10; fill: rgb(0,0,0); fill-rule: nonzero; opacity: 1;" transform=" matrix(1 0 0 1 0 0) " stroke-linecap="round" />
</g>
</svg>