<?xml version="1.0" encoding="utf-8"?><svg version="1.1" id="Layer_1" xmlns="http://www.w3.org/2000/svg" xmlns:xlink="http://www.w3.org/1999/xlink" x="0px" y="0px" viewBox="0 0 105.765 122.88" enable-background="new 0 0 105.765 122.88" xml:space="preserve"><g><path d="M82.872,90.81c-2.983-8.16-7.707-14.175-13.283-18.06c-3.772-2.629-7.914-4.284-12.133-4.97 c-4.236-0.686-8.583-0.408-12.747,0.828C35.573,71.323,27.33,78.716,22.903,90.81H82.872L82.872,90.81z M20.618,27.21h64.535 c0.346-2.922,1.154-13.713,1.119-16.995H19.497C19.462,13.498,20.27,24.288,20.618,27.21L20.618,27.21L20.618,27.21z M0.91,112.665 h9.567C10.222,85.12,22.648,68.03,38.027,61.466C22.637,54.9,10.205,37.79,10.478,10.214l-9.567,0c-0.501,0-0.909-0.46-0.909-1.025 L0,1.024C0,0.46,0.409,0,0.91,0h103.944c0.5,0,0.91,0.46,0.91,1.024v8.164c0,0.563-0.41,1.024-0.91,1.024h-9.57 c0.225,23.214-8.581,39.038-20.546,47.376c-2.188,1.522-4.543,2.832-6.994,3.873c2.446,1.049,4.81,2.354,6.992,3.88 c11.955,8.332,20.756,24.139,20.546,47.321l9.572,0.001c0.5,0,0.91,0.463,0.91,1.026v8.162c0,0.564-0.41,1.027-0.91,1.027H0.91 c-0.501,0-0.909-0.463-0.909-1.026v-8.162C0.001,113.128,0.41,112.665,0.91,112.665L0.91,112.665L0.91,112.665z"/></g></svg>